<svg width="199" height="30" viewBox="0 0 199 30" fill="none" xmlns="http://www.w3.org/2000/svg">
<path d="M0 10C0 4.47715 4.47715 0 10 0H189C194.523 0 199 4.47715 199 10V20C199 25.5228 194.523 30 189 30H10C4.47715 30 0 25.5228 0 20V10Z" fill="#97C95D"/>
<path d="M25.75 15.75L28.75 18.75L36.25 11.25" stroke="white" stroke-width="2" stroke-linecap="round" stroke-linejoin="round"/>
<path d="M57.1709 12.8438C57.1709 13.5 56.9613 14.0332 56.542 14.4434C56.1273 14.8535 55.5531 15.1133 54.8193 15.2227V15.2773C55.6533 15.3913 56.2845 15.6533 56.7129 16.0635C57.1458 16.4736 57.3623 17.0091 57.3623 17.6699C57.3623 18.6042 57.0137 19.3333 56.3164 19.8574C55.6191 20.377 54.6348 20.6367 53.3633 20.6367C52.2012 20.6367 51.2487 20.4567 50.5059 20.0967V19.0166C50.9434 19.2262 51.415 19.388 51.9209 19.502C52.4313 19.6159 52.9212 19.6729 53.3906 19.6729C54.293 19.6729 54.9743 19.502 55.4346 19.1602C55.8994 18.8184 56.1318 18.3262 56.1318 17.6836C56.1318 17.0729 55.8743 16.6104 55.3594 16.2959C54.849 15.9814 54.0856 15.8242 53.0693 15.8242H51.5791V14.8467H53.0078C53.9421 14.8467 54.6644 14.6803 55.1748 14.3477C55.6898 14.0104 55.9473 13.541 55.9473 12.9395C55.9473 12.4518 55.7627 12.0622 55.3936 11.7705C55.0244 11.4788 54.5277 11.333 53.9033 11.333C53.402 11.333 52.9486 11.39 52.543 11.5039C52.1374 11.6178 51.668 11.8434 51.1348 12.1807L50.5605 11.4014C51.0208 11.0596 51.5358 10.8021 52.1055 10.6289C52.6797 10.4512 53.2744 10.3623 53.8896 10.3623C54.915 10.3623 55.7171 10.5879 56.2959 11.0391C56.8792 11.4857 57.1709 12.0872 57.1709 12.8438ZM63.9453 20.5L63.7197 19.4336H63.665C63.2913 19.903 62.9176 20.222 62.5439 20.3906C62.1748 20.5547 61.7122 20.6367 61.1562 20.6367C60.4134 20.6367 59.8301 20.4453 59.4062 20.0625C58.987 19.6797 58.7773 19.1351 58.7773 18.4287C58.7773 16.9157 59.9873 16.1227 62.4072 16.0498L63.6787 16.0088V15.5439C63.6787 14.9561 63.5511 14.5231 63.2959 14.2451C63.0452 13.9626 62.6419 13.8213 62.0859 13.8213C61.4616 13.8213 60.7552 14.0127 59.9668 14.3955L59.6182 13.5273C59.9873 13.3268 60.3906 13.1696 60.8281 13.0557C61.2702 12.9417 61.7122 12.8848 62.1543 12.8848C63.0475 12.8848 63.7083 13.083 64.1367 13.4795C64.5697 13.876 64.7861 14.5117 64.7861 15.3867V20.5H63.9453ZM61.3818 19.7002C62.0882 19.7002 62.6419 19.5065 63.043 19.1191C63.4486 18.7318 63.6514 18.1895 63.6514 17.4922V16.8154L62.5166 16.8633C61.6143 16.8952 60.9626 17.0365 60.5615 17.2871C60.165 17.5332 59.9668 17.9183 59.9668 18.4424C59.9668 18.8525 60.0898 19.1647 60.3359 19.3789C60.5866 19.5931 60.9352 19.7002 61.3818 19.7002ZM73.208 14.8877C73.208 15.3753 73.0667 15.7467 72.7842 16.002C72.5062 16.2526 72.1143 16.4212 71.6084 16.5078V16.5693C72.2464 16.6559 72.7113 16.8428 73.0029 17.1299C73.2992 17.417 73.4473 17.8135 73.4473 18.3193C73.4473 19.0166 73.1898 19.5544 72.6748 19.9326C72.1644 20.3109 71.417 20.5 70.4326 20.5H67.1309V13.0078H70.4189C72.2783 13.0078 73.208 13.6344 73.208 14.8877ZM72.3125 18.2441C72.3125 17.8385 72.1576 17.5446 71.8477 17.3623C71.5423 17.1755 71.0342 17.082 70.3232 17.082H68.2656V19.5498H70.3506C71.6585 19.5498 72.3125 19.1146 72.3125 18.2441ZM72.1006 14.9971C72.1006 14.6325 71.9593 14.375 71.6768 14.2246C71.3988 14.0697 70.9749 13.9922 70.4053 13.9922H68.2656V16.1045H70.1865C70.8883 16.1045 71.3828 16.0179 71.6699 15.8447C71.957 15.6715 72.1006 15.389 72.1006 14.9971ZM78.2666 20.6367C77.1592 20.6367 76.2842 20.2995 75.6416 19.625C75.0036 18.9505 74.6846 18.014 74.6846 16.8154C74.6846 15.6077 74.9808 14.6484 75.5732 13.9375C76.1702 13.2266 76.9701 12.8711 77.9727 12.8711C78.9115 12.8711 79.6543 13.181 80.2012 13.8008C80.748 14.416 81.0215 15.2295 81.0215 16.2412V16.959H75.8604C75.8831 17.8385 76.1042 18.5062 76.5234 18.9619C76.9473 19.4176 77.542 19.6455 78.3076 19.6455C79.1143 19.6455 79.9118 19.4769 80.7002 19.1396V20.1514C80.2992 20.3245 79.9186 20.4476 79.5586 20.5205C79.2031 20.598 78.7725 20.6367 78.2666 20.6367ZM77.959 13.8213C77.3574 13.8213 76.8766 14.0173 76.5166 14.4092C76.1611 14.8011 75.9515 15.3434 75.8877 16.0361H79.8047C79.8047 15.3206 79.6452 14.7738 79.3262 14.3955C79.0072 14.0127 78.5514 13.8213 77.959 13.8213ZM86.4492 20.6367C85.9616 20.6367 85.515 20.5479 85.1094 20.3701C84.7083 20.1878 84.3711 19.9098 84.0977 19.5361H84.0156C84.0703 19.9736 84.0977 20.3883 84.0977 20.7803V23.8633H82.9629V13.0078H83.8857L84.043 14.0332H84.0977C84.3893 13.623 84.7288 13.3268 85.1162 13.1445C85.5036 12.9622 85.9479 12.8711 86.4492 12.8711C87.4427 12.8711 88.2083 13.2106 88.7461 13.8896C89.2884 14.5687 89.5596 15.5212 89.5596 16.7471C89.5596 17.9775 89.2839 18.9346 88.7324 19.6182C88.1855 20.2972 87.4245 20.6367 86.4492 20.6367ZM86.2852 13.835C85.5195 13.835 84.9658 14.0469 84.624 14.4707C84.2822 14.8945 84.1068 15.569 84.0977 16.4941V16.7471C84.0977 17.7998 84.2731 18.554 84.624 19.0098C84.9749 19.4609 85.5378 19.6865 86.3125 19.6865C86.9596 19.6865 87.4655 19.4245 87.8301 18.9004C88.1992 18.3763 88.3838 17.654 88.3838 16.7334C88.3838 15.7992 88.1992 15.0837 87.8301 14.5869C87.4655 14.0856 86.9505 13.835 86.2852 13.835ZM97.1338 19.5225H100.456V13.0078H101.604V20.5H91.5488V13.0078H92.6836V19.5225H95.999V13.0078H97.1338V19.5225ZM105.084 13.0078V17.7588L105.036 19.0029L105.016 19.3926L109.069 13.0078H110.484V20.5H109.425V15.9199L109.445 15.0176L109.479 14.1289L105.433 20.5H104.018V13.0078H105.084ZM117.942 13.9785H115.509V20.5H114.374V13.9785H111.968V13.0078H117.942V13.9785ZM120.561 16.1045H122.871C124.785 16.1045 125.742 16.8086 125.742 18.2168C125.742 18.9551 125.492 19.5202 124.99 19.9121C124.493 20.304 123.764 20.5 122.803 20.5H119.426V13.0078H120.561V16.1045ZM120.561 17.082V19.5498H122.748C123.35 19.5498 123.81 19.445 124.129 19.2354C124.448 19.0257 124.607 18.709 124.607 18.2852C124.607 17.8704 124.459 17.5674 124.163 17.376C123.871 17.18 123.388 17.082 122.714 17.082H120.561ZM132.776 16.1182C134.194 16.1182 134.902 15.7262 134.902 14.9424C134.902 14.2041 134.328 13.835 133.18 13.835C132.829 13.835 132.51 13.8669 132.223 13.9307C131.936 13.9945 131.56 14.1221 131.095 14.3135L130.691 13.3906C131.466 13.0443 132.312 12.8711 133.228 12.8711C134.089 12.8711 134.768 13.0488 135.265 13.4043C135.761 13.7552 136.01 14.236 136.01 14.8467C136.01 15.6852 135.543 16.2344 134.608 16.4941V16.5488C135.183 16.7174 135.602 16.959 135.866 17.2734C136.131 17.5833 136.263 17.973 136.263 18.4424C136.263 19.1351 135.982 19.6751 135.422 20.0625C134.866 20.4453 134.096 20.6367 133.111 20.6367C132.031 20.6367 131.197 20.4749 130.609 20.1514V19.1123C131.443 19.5042 132.286 19.7002 133.139 19.7002C133.795 19.7002 134.289 19.5885 134.622 19.3652C134.959 19.1374 135.128 18.8115 135.128 18.3877C135.128 17.5173 134.419 17.082 133.002 17.082H131.963V16.1182H132.776ZM142.723 20.5L142.497 19.4336H142.442C142.069 19.903 141.695 20.222 141.321 20.3906C140.952 20.5547 140.49 20.6367 139.934 20.6367C139.191 20.6367 138.607 20.4453 138.184 20.0625C137.764 19.6797 137.555 19.1351 137.555 18.4287C137.555 16.9157 138.765 16.1227 141.185 16.0498L142.456 16.0088V15.5439C142.456 14.9561 142.328 14.5231 142.073 14.2451C141.823 13.9626 141.419 13.8213 140.863 13.8213C140.239 13.8213 139.533 14.0127 138.744 14.3955L138.396 13.5273C138.765 13.3268 139.168 13.1696 139.605 13.0557C140.048 12.9417 140.49 12.8848 140.932 12.8848C141.825 12.8848 142.486 13.083 142.914 13.4795C143.347 13.876 143.563 14.5117 143.563 15.3867V20.5H142.723ZM140.159 19.7002C140.866 19.7002 141.419 19.5065 141.82 19.1191C142.226 18.7318 142.429 18.1895 142.429 17.4922V16.8154L141.294 16.8633C140.392 16.8952 139.74 17.0365 139.339 17.2871C138.942 17.5332 138.744 17.9183 138.744 18.4424C138.744 18.8525 138.867 19.1647 139.113 19.3789C139.364 19.5931 139.713 19.7002 140.159 19.7002ZM152.416 23.0908H151.315V20.5H146.079V23.0908H144.985V19.5225H145.573C146.184 18.693 146.662 17.7201 147.009 16.6035C147.355 15.487 147.535 14.2884 147.549 13.0078H151.343V19.5225H152.416V23.0908ZM150.249 19.5225V13.9033H148.567C148.508 14.915 148.312 15.9404 147.979 16.9795C147.651 18.014 147.241 18.8617 146.749 19.5225H150.249ZM158.527 20.5L158.302 19.4336H158.247C157.873 19.903 157.5 20.222 157.126 20.3906C156.757 20.5547 156.294 20.6367 155.738 20.6367C154.995 20.6367 154.412 20.4453 153.988 20.0625C153.569 19.6797 153.359 19.1351 153.359 18.4287C153.359 16.9157 154.569 16.1227 156.989 16.0498L158.261 16.0088V15.5439C158.261 14.9561 158.133 14.5231 157.878 14.2451C157.627 13.9626 157.224 13.8213 156.668 13.8213C156.044 13.8213 155.337 14.0127 154.549 14.3955L154.2 13.5273C154.569 13.3268 154.973 13.1696 155.41 13.0557C155.852 12.9417 156.294 12.8848 156.736 12.8848C157.63 12.8848 158.29 13.083 158.719 13.4795C159.152 13.876 159.368 14.5117 159.368 15.3867V20.5H158.527ZM155.964 19.7002C156.67 19.7002 157.224 19.5065 157.625 19.1191C158.031 18.7318 158.233 18.1895 158.233 17.4922V16.8154L157.099 16.8633C156.196 16.8952 155.545 17.0365 155.144 17.2871C154.747 17.5332 154.549 17.9183 154.549 18.4424C154.549 18.8525 154.672 19.1647 154.918 19.3789C155.169 19.5931 155.517 19.7002 155.964 19.7002ZM162.711 13.0078V15.7422C162.711 16.6172 163.21 17.0547 164.208 17.0547C164.623 17.0547 165.019 16.9909 165.397 16.8633C165.776 16.7357 166.204 16.5192 166.683 16.2139V13.0078H167.817V20.5H166.683V17.1094C166.204 17.4375 165.76 17.6699 165.35 17.8066C164.944 17.9388 164.484 18.0049 163.969 18.0049C163.221 18.0049 162.636 17.8089 162.212 17.417C161.788 17.0251 161.576 16.4941 161.576 15.8242V13.0078H162.711ZM169.041 13.0078H170.258L171.898 17.2803C172.258 18.2555 172.482 18.9596 172.568 19.3926H172.623C172.682 19.1602 172.805 18.7637 172.992 18.2031C173.184 17.638 173.803 15.9062 174.852 13.0078H176.068L172.849 21.5391C172.53 22.3822 172.156 22.9792 171.728 23.3301C171.304 23.6855 170.782 23.8633 170.162 23.8633C169.816 23.8633 169.474 23.8245 169.137 23.7471V22.8379C169.387 22.8926 169.668 22.9199 169.978 22.9199C170.757 22.9199 171.313 22.4824 171.646 21.6074L172.062 20.541L169.041 13.0078Z" fill="white"/>
</svg>
