<svg width="222" height="30" viewBox="0 0 222 30" fill="none" xmlns="http://www.w3.org/2000/svg">
<path d="M0 10C0 4.47715 4.47715 0 10 0H212C217.523 0 222 4.47715 222 10V20C222 25.5228 217.523 30 212 30H9.99999C4.47715 30 0 25.5228 0 20V10Z" fill="#F2F5FA"/>
<path d="M33.064 14.376L30.6663 12.777C30.5532 12.7016 30.4218 12.6583 30.286 12.6517C30.1503 12.6452 30.0153 12.6757 29.8955 12.7399C29.7757 12.8042 29.6757 12.8998 29.606 13.0165C29.5364 13.1331 29.4997 13.2666 29.5 13.4025V16.5997C29.5 16.7355 29.5368 16.8688 29.6066 16.9852C29.6764 17.1017 29.7765 17.1971 29.8962 17.2611C30.0159 17.3252 30.1508 17.3556 30.2864 17.349C30.422 17.3424 30.5533 17.2991 30.6663 17.2237L33.064 15.6247C33.1667 15.5563 33.2509 15.4635 33.3092 15.3546C33.3674 15.2458 33.3979 15.1242 33.3979 15.0007C33.3979 14.8773 33.3674 14.7557 33.3092 14.6469C33.2509 14.538 33.1667 14.4452 33.064 14.3767V14.376Z" stroke="#333333" stroke-linecap="round" stroke-linejoin="round"/>
<path d="M37.75 15C37.75 15.8864 37.5754 16.7642 37.2362 17.5831C36.897 18.4021 36.3998 19.1462 35.773 19.773C35.1462 20.3998 34.4021 20.897 33.5831 21.2362C32.7642 21.5754 31.8864 21.75 31 21.75C30.1136 21.75 29.2358 21.5754 28.4169 21.2362C27.5979 20.897 26.8538 20.3998 26.227 19.773C25.6002 19.1462 25.103 18.4021 24.7638 17.5831C24.4246 16.7642 24.25 15.8864 24.25 15C24.25 13.2098 24.9612 11.4929 26.227 10.227C27.4929 8.96116 29.2098 8.25 31 8.25C32.7902 8.25 34.5071 8.96116 35.773 10.227C37.0388 11.4929 37.75 13.2098 37.75 15Z" stroke="#333333" stroke-linecap="round" stroke-linejoin="round"/>
<path d="M57.7109 13.418C57.7109 14.4297 57.3646 15.209 56.6719 15.7559C55.9837 16.2982 54.9971 16.5693 53.7119 16.5693H52.5361V20.5H51.374V10.5059H53.9648C56.4622 10.5059 57.7109 11.4766 57.7109 13.418ZM52.5361 15.5713H53.582C54.612 15.5713 55.3571 15.4049 55.8174 15.0723C56.2777 14.7396 56.5078 14.2064 56.5078 13.4727C56.5078 12.8118 56.2913 12.3197 55.8584 11.9961C55.4255 11.6725 54.751 11.5107 53.835 11.5107H52.5361V15.5713ZM64.2461 20.5L64.0205 19.4336H63.9658C63.5921 19.903 63.2184 20.222 62.8447 20.3906C62.4756 20.5547 62.013 20.6367 61.457 20.6367C60.7142 20.6367 60.1309 20.4453 59.707 20.0625C59.2878 19.6797 59.0781 19.1351 59.0781 18.4287C59.0781 16.9157 60.2881 16.1227 62.708 16.0498L63.9795 16.0088V15.5439C63.9795 14.9561 63.8519 14.5231 63.5967 14.2451C63.346 13.9626 62.9427 13.8213 62.3867 13.8213C61.7624 13.8213 61.056 14.0127 60.2676 14.3955L59.9189 13.5273C60.2881 13.3268 60.6914 13.1696 61.1289 13.0557C61.571 12.9417 62.013 12.8848 62.4551 12.8848C63.3483 12.8848 64.0091 13.083 64.4375 13.4795C64.8704 13.876 65.0869 14.5117 65.0869 15.3867V20.5H64.2461ZM61.6826 19.7002C62.389 19.7002 62.9427 19.5065 63.3438 19.1191C63.7493 18.7318 63.9521 18.1895 63.9521 17.4922V16.8154L62.8174 16.8633C61.915 16.8952 61.2633 17.0365 60.8623 17.2871C60.4658 17.5332 60.2676 17.9183 60.2676 18.4424C60.2676 18.8525 60.3906 19.1647 60.6367 19.3789C60.8874 19.5931 61.236 19.7002 61.6826 19.7002ZM67.042 16.0088C67.042 14.3682 67.2835 13.0898 67.7666 12.1738C68.2497 11.2533 69.0153 10.679 70.0635 10.4512C71.3669 10.1732 72.5153 9.94759 73.5088 9.77441L73.7207 10.7725C72.1393 11.0368 71.0091 11.2464 70.3301 11.4014C69.6693 11.5518 69.1725 11.9072 68.8398 12.4678C68.5117 13.0283 68.3317 13.7917 68.2998 14.7578H68.3818C68.6644 14.375 69.029 14.0742 69.4756 13.8555C69.9222 13.6367 70.3893 13.5273 70.877 13.5273C71.7975 13.5273 72.5153 13.8258 73.0303 14.4229C73.5452 15.0199 73.8027 15.847 73.8027 16.9043C73.8027 18.0755 73.5042 18.9915 72.9072 19.6523C72.3102 20.3086 71.4785 20.6367 70.4121 20.6367C69.3594 20.6367 68.5345 20.2334 67.9375 19.4268C67.3405 18.6201 67.042 17.4808 67.042 16.0088ZM70.5146 19.6865C71.9046 19.6865 72.5996 18.8001 72.5996 17.0273C72.5996 15.3366 71.9684 14.4912 70.7061 14.4912C70.3597 14.4912 70.0247 14.5641 69.7012 14.71C69.3822 14.8512 69.0882 15.0404 68.8193 15.2773C68.555 15.5143 68.3499 15.7581 68.2041 16.0088C68.2041 17.2074 68.3932 18.1211 68.7715 18.75C69.1497 19.3743 69.7308 19.6865 70.5146 19.6865ZM82.252 16.7471C82.252 17.9684 81.9443 18.9232 81.3291 19.6113C80.7139 20.2949 79.8639 20.6367 78.7793 20.6367C78.1094 20.6367 77.5146 20.4795 76.9951 20.165C76.4756 19.8506 76.0745 19.3994 75.792 18.8115C75.5094 18.2236 75.3682 17.5355 75.3682 16.7471C75.3682 15.5257 75.6735 14.5755 76.2842 13.8965C76.8949 13.2129 77.7425 12.8711 78.8271 12.8711C79.8753 12.8711 80.707 13.2197 81.3223 13.917C81.9421 14.6143 82.252 15.5576 82.252 16.7471ZM76.5439 16.7471C76.5439 17.7041 76.7354 18.4333 77.1182 18.9346C77.501 19.4359 78.0638 19.6865 78.8066 19.6865C79.5495 19.6865 80.1123 19.4382 80.4951 18.9414C80.8825 18.4401 81.0762 17.7087 81.0762 16.7471C81.0762 15.7946 80.8825 15.0723 80.4951 14.5801C80.1123 14.0833 79.5449 13.835 78.793 13.835C78.0501 13.835 77.4896 14.0788 77.1113 14.5664C76.7331 15.054 76.5439 15.7809 76.5439 16.7471ZM89.2998 13.9785H86.8662V20.5H85.7314V13.9785H83.3252V13.0078H89.2998V13.9785ZM95.3906 20.5L95.165 19.4336H95.1104C94.7367 19.903 94.363 20.222 93.9893 20.3906C93.6201 20.5547 93.1576 20.6367 92.6016 20.6367C91.8587 20.6367 91.2754 20.4453 90.8516 20.0625C90.4323 19.6797 90.2227 19.1351 90.2227 18.4287C90.2227 16.9157 91.4326 16.1227 93.8525 16.0498L95.124 16.0088V15.5439C95.124 14.9561 94.9964 14.5231 94.7412 14.2451C94.4906 13.9626 94.0872 13.8213 93.5312 13.8213C92.9069 13.8213 92.2005 14.0127 91.4121 14.3955L91.0635 13.5273C91.4326 13.3268 91.8359 13.1696 92.2734 13.0557C92.7155 12.9417 93.1576 12.8848 93.5996 12.8848C94.4928 12.8848 95.1536 13.083 95.582 13.4795C96.015 13.876 96.2314 14.5117 96.2314 15.3867V20.5H95.3906ZM92.8271 19.7002C93.5335 19.7002 94.0872 19.5065 94.4883 19.1191C94.8939 18.7318 95.0967 18.1895 95.0967 17.4922V16.8154L93.9619 16.8633C93.0596 16.8952 92.4079 17.0365 92.0068 17.2871C91.6104 17.5332 91.4121 17.9183 91.4121 18.4424C91.4121 18.8525 91.5352 19.1647 91.7812 19.3789C92.0319 19.5931 92.3805 19.7002 92.8271 19.7002ZM103.628 13.9785H101.194V20.5H100.06V13.9785H97.6533V13.0078H103.628V13.9785ZM106.246 16.1045H108.557C110.471 16.1045 111.428 16.8086 111.428 18.2168C111.428 18.9551 111.177 19.5202 110.676 19.9121C110.179 20.304 109.45 20.5 108.488 20.5H105.111V13.0078H106.246V16.1045ZM106.246 17.082V19.5498H108.434C109.035 19.5498 109.495 19.445 109.814 19.2354C110.133 19.0257 110.293 18.709 110.293 18.2852C110.293 17.8704 110.145 17.5674 109.849 17.376C109.557 17.18 109.074 17.082 108.399 17.082H106.246ZM118.168 13.0078V16.1455H122.365V13.0078H123.5V20.5H122.365V17.123H118.168V20.5H117.033V13.0078H118.168ZM130.514 20.5L130.288 19.4336H130.233C129.86 19.903 129.486 20.222 129.112 20.3906C128.743 20.5547 128.281 20.6367 127.725 20.6367C126.982 20.6367 126.398 20.4453 125.975 20.0625C125.555 19.6797 125.346 19.1351 125.346 18.4287C125.346 16.9157 126.556 16.1227 128.976 16.0498L130.247 16.0088V15.5439C130.247 14.9561 130.119 14.5231 129.864 14.2451C129.614 13.9626 129.21 13.8213 128.654 13.8213C128.03 13.8213 127.324 14.0127 126.535 14.3955L126.187 13.5273C126.556 13.3268 126.959 13.1696 127.396 13.0557C127.839 12.9417 128.281 12.8848 128.723 12.8848C129.616 12.8848 130.277 13.083 130.705 13.4795C131.138 13.876 131.354 14.5117 131.354 15.3867V20.5H130.514ZM127.95 19.7002C128.657 19.7002 129.21 19.5065 129.611 19.1191C130.017 18.7318 130.22 18.1895 130.22 17.4922V16.8154L129.085 16.8633C128.183 16.8952 127.531 17.0365 127.13 17.2871C126.733 17.5332 126.535 17.9183 126.535 18.4424C126.535 18.8525 126.658 19.1647 126.904 19.3789C127.155 19.5931 127.504 19.7002 127.95 19.7002ZM140.207 23.0908H139.106V20.5H133.87V23.0908H132.776V19.5225H133.364C133.975 18.693 134.453 17.7201 134.8 16.6035C135.146 15.487 135.326 14.2884 135.34 13.0078H139.134V19.5225H140.207V23.0908ZM138.04 19.5225V13.9033H136.358C136.299 14.915 136.103 15.9404 135.771 16.9795C135.442 18.014 135.032 18.8617 134.54 19.5225H138.04ZM146.776 16.1182C148.194 16.1182 148.902 15.7262 148.902 14.9424C148.902 14.2041 148.328 13.835 147.18 13.835C146.829 13.835 146.51 13.8669 146.223 13.9307C145.936 13.9945 145.56 14.1221 145.095 14.3135L144.691 13.3906C145.466 13.0443 146.312 12.8711 147.228 12.8711C148.089 12.8711 148.768 13.0488 149.265 13.4043C149.761 13.7552 150.01 14.236 150.01 14.8467C150.01 15.6852 149.543 16.2344 148.608 16.4941V16.5488C149.183 16.7174 149.602 16.959 149.866 17.2734C150.131 17.5833 150.263 17.973 150.263 18.4424C150.263 19.1351 149.982 19.6751 149.422 20.0625C148.866 20.4453 148.096 20.6367 147.111 20.6367C146.031 20.6367 145.197 20.4749 144.609 20.1514V19.1123C145.443 19.5042 146.286 19.7002 147.139 19.7002C147.795 19.7002 148.289 19.5885 148.622 19.3652C148.959 19.1374 149.128 18.8115 149.128 18.3877C149.128 17.5173 148.419 17.082 147.002 17.082H145.963V16.1182H146.776ZM156.723 20.5L156.497 19.4336H156.442C156.069 19.903 155.695 20.222 155.321 20.3906C154.952 20.5547 154.49 20.6367 153.934 20.6367C153.191 20.6367 152.607 20.4453 152.184 20.0625C151.764 19.6797 151.555 19.1351 151.555 18.4287C151.555 16.9157 152.765 16.1227 155.185 16.0498L156.456 16.0088V15.5439C156.456 14.9561 156.328 14.5231 156.073 14.2451C155.823 13.9626 155.419 13.8213 154.863 13.8213C154.239 13.8213 153.533 14.0127 152.744 14.3955L152.396 13.5273C152.765 13.3268 153.168 13.1696 153.605 13.0557C154.048 12.9417 154.49 12.8848 154.932 12.8848C155.825 12.8848 156.486 13.083 156.914 13.4795C157.347 13.876 157.563 14.5117 157.563 15.3867V20.5H156.723ZM154.159 19.7002C154.866 19.7002 155.419 19.5065 155.82 19.1191C156.226 18.7318 156.429 18.1895 156.429 17.4922V16.8154L155.294 16.8633C154.392 16.8952 153.74 17.0365 153.339 17.2871C152.942 17.5332 152.744 17.9183 152.744 18.4424C152.744 18.8525 152.867 19.1647 153.113 19.3789C153.364 19.5931 153.713 19.7002 154.159 19.7002ZM166.416 23.0908H165.315V20.5H160.079V23.0908H158.985V19.5225H159.573C160.184 18.693 160.662 17.7201 161.009 16.6035C161.355 15.487 161.535 14.2884 161.549 13.0078H165.343V19.5225H166.416V23.0908ZM164.249 19.5225V13.9033H162.567C162.508 14.915 162.312 15.9404 161.979 16.9795C161.651 18.014 161.241 18.8617 160.749 19.5225H164.249ZM172.527 20.5L172.302 19.4336H172.247C171.873 19.903 171.5 20.222 171.126 20.3906C170.757 20.5547 170.294 20.6367 169.738 20.6367C168.995 20.6367 168.412 20.4453 167.988 20.0625C167.569 19.6797 167.359 19.1351 167.359 18.4287C167.359 16.9157 168.569 16.1227 170.989 16.0498L172.261 16.0088V15.5439C172.261 14.9561 172.133 14.5231 171.878 14.2451C171.627 13.9626 171.224 13.8213 170.668 13.8213C170.044 13.8213 169.337 14.0127 168.549 14.3955L168.2 13.5273C168.569 13.3268 168.973 13.1696 169.41 13.0557C169.852 12.9417 170.294 12.8848 170.736 12.8848C171.63 12.8848 172.29 13.083 172.719 13.4795C173.152 13.876 173.368 14.5117 173.368 15.3867V20.5H172.527ZM169.964 19.7002C170.67 19.7002 171.224 19.5065 171.625 19.1191C172.031 18.7318 172.233 18.1895 172.233 17.4922V16.8154L171.099 16.8633C170.196 16.8952 169.545 17.0365 169.144 17.2871C168.747 17.5332 168.549 17.9183 168.549 18.4424C168.549 18.8525 168.672 19.1647 168.918 19.3789C169.169 19.5931 169.517 19.7002 169.964 19.7002ZM176.711 13.0078V15.7422C176.711 16.6172 177.21 17.0547 178.208 17.0547C178.623 17.0547 179.019 16.9909 179.397 16.8633C179.776 16.7357 180.204 16.5192 180.683 16.2139V13.0078H181.817V20.5H180.683V17.1094C180.204 17.4375 179.76 17.6699 179.35 17.8066C178.944 17.9388 178.484 18.0049 177.969 18.0049C177.221 18.0049 176.636 17.8089 176.212 17.417C175.788 17.0251 175.576 16.4941 175.576 15.8242V13.0078H176.711ZM187.396 20.6367C186.288 20.6367 185.413 20.2995 184.771 19.625C184.132 18.9505 183.813 18.014 183.813 16.8154C183.813 15.6077 184.11 14.6484 184.702 13.9375C185.299 13.2266 186.099 12.8711 187.102 12.8711C188.04 12.8711 188.783 13.181 189.33 13.8008C189.877 14.416 190.15 15.2295 190.15 16.2412V16.959H184.989C185.012 17.8385 185.233 18.5062 185.652 18.9619C186.076 19.4176 186.671 19.6455 187.437 19.6455C188.243 19.6455 189.041 19.4769 189.829 19.1396V20.1514C189.428 20.3245 189.048 20.4476 188.688 20.5205C188.332 20.598 187.901 20.6367 187.396 20.6367ZM187.088 13.8213C186.486 13.8213 186.006 14.0173 185.646 14.4092C185.29 14.8011 185.08 15.3434 185.017 16.0361H188.934C188.934 15.3206 188.774 14.7738 188.455 14.3955C188.136 14.0127 187.68 13.8213 187.088 13.8213ZM193.158 13.0078V17.7588L193.11 19.0029L193.09 19.3926L197.144 13.0078H198.559V20.5H197.499V15.9199L197.52 15.0176L197.554 14.1289L193.507 20.5H192.092V13.0078H193.158ZM195.298 12.0166C194.455 12.0166 193.84 11.8548 193.452 11.5312C193.065 11.2031 192.848 10.6654 192.803 9.91797H193.869C193.91 10.3919 194.033 10.7223 194.238 10.9092C194.448 11.096 194.81 11.1895 195.325 11.1895C195.795 11.1895 196.141 11.0892 196.364 10.8887C196.592 10.6882 196.731 10.3646 196.781 9.91797H197.854C197.8 10.638 197.57 11.1689 197.164 11.5107C196.758 11.848 196.136 12.0166 195.298 12.0166Z" fill="#333333"/>
</svg>
