<svg width="280" height="50" viewBox="0 0 280 50" fill="none" xmlns="http://www.w3.org/2000/svg">
<g opacity="0.5">
<path d="M25.0938 29.3984H25.9766C26.7318 28.0182 27.3646 26.4688 27.875 24.75C28.3854 23.0312 28.7135 21.3073 28.8594 19.5781H34.7578V29.3984H36.2344V34.1484H34.4375V31H26.8906V34.1484H25.0938V29.3984ZM30.4219 21.1953C30.3073 22.3776 30.0156 23.75 29.5469 25.3125C29.0781 26.8698 28.5443 28.2318 27.9453 29.3984H32.8906V21.1953H30.4219ZM45.5547 26.6641C45.5547 28.0755 45.1927 29.1771 44.4688 29.9688C43.7448 30.7604 42.737 31.1562 41.4453 31.1562C40.638 31.1562 39.9245 30.974 39.3047 30.6094C38.6849 30.2448 38.2083 29.7214 37.875 29.0391C37.5417 28.3568 37.375 27.5651 37.375 26.6641C37.375 25.263 37.7344 24.1693 38.4531 23.3828C39.1719 22.5964 40.1849 22.2031 41.4922 22.2031C42.7422 22.2031 43.7318 22.6068 44.4609 23.4141C45.1901 24.2161 45.5547 25.2995 45.5547 26.6641ZM39.2656 26.6641C39.2656 28.6589 40.0026 29.6562 41.4766 29.6562C42.9349 29.6562 43.6641 28.6589 43.6641 26.6641C43.6641 24.6901 42.9297 23.7031 41.4609 23.7031C40.6901 23.7031 40.1302 23.9583 39.7812 24.4688C39.4375 24.9792 39.2656 25.7109 39.2656 26.6641ZM47.1719 25.8125C47.1719 23.8854 47.4974 22.4036 48.1484 21.3672C48.8047 20.3307 49.8464 19.6641 51.2734 19.3672C52.3516 19.1484 53.5938 18.9349 55 18.7266L55.2578 20.3438C53.5495 20.6042 52.2995 20.8073 51.5078 20.9531C50.6901 21.1042 50.099 21.4401 49.7344 21.9609C49.375 22.4818 49.1667 23.2656 49.1094 24.3125H49.2266C49.5234 23.8802 49.9115 23.5469 50.3906 23.3125C50.8698 23.0729 51.3828 22.9531 51.9297 22.9531C52.9922 22.9531 53.8203 23.2891 54.4141 23.9609C55.0078 24.6328 55.3047 25.5755 55.3047 26.7891C55.3047 28.1797 54.9427 29.2552 54.2188 30.0156C53.5 30.776 52.5026 31.1562 51.2266 31.1562C49.9609 31.1562 48.9688 30.6875 48.25 29.75C47.5312 28.8125 47.1719 27.5 47.1719 25.8125ZM51.3516 29.6562C52.7161 29.6562 53.3984 28.7604 53.3984 26.9688C53.3984 25.2396 52.7812 24.375 51.5469 24.375C51.2083 24.375 50.8802 24.4479 50.5625 24.5938C50.2448 24.7396 49.9505 24.9323 49.6797 25.1719C49.4141 25.4115 49.2083 25.6589 49.0625 25.9141C49.0625 27.1432 49.2578 28.0755 49.6484 28.7109C50.0391 29.3411 50.6068 29.6562 51.3516 29.6562ZM62.8281 31L62.4609 29.7969H62.3984C61.9818 30.3229 61.5625 30.6823 61.1406 30.875C60.7188 31.0625 60.1771 31.1562 59.5156 31.1562C58.6667 31.1562 58.0026 30.9271 57.5234 30.4688C57.0495 30.0104 56.8125 29.362 56.8125 28.5234C56.8125 27.6328 57.1432 26.9609 57.8047 26.5078C58.4661 26.0547 59.474 25.8073 60.8281 25.7656L62.3203 25.7188V25.2578C62.3203 24.7057 62.1901 24.2943 61.9297 24.0234C61.6745 23.7474 61.276 23.6094 60.7344 23.6094C60.2917 23.6094 59.8672 23.6745 59.4609 23.8047C59.0547 23.9349 58.6641 24.0885 58.2891 24.2656L57.6953 22.9531C58.1641 22.7083 58.6771 22.5234 59.2344 22.3984C59.7917 22.2682 60.3177 22.2031 60.8125 22.2031C61.9115 22.2031 62.7396 22.4427 63.2969 22.9219C63.8594 23.401 64.1406 24.1536 64.1406 25.1797V31H62.8281ZM60.0938 29.75C60.7604 29.75 61.2943 29.5651 61.6953 29.1953C62.1016 28.8203 62.3047 28.2969 62.3047 27.625V26.875L61.1953 26.9219C60.3307 26.9531 59.7005 27.099 59.3047 27.3594C58.9141 27.6146 58.7188 28.0078 58.7188 28.5391C58.7188 28.9245 58.8333 29.224 59.0625 29.4375C59.2917 29.6458 59.6354 29.75 60.0938 29.75ZM74.2031 24.5703C74.2031 25.5911 73.6068 26.2083 72.4141 26.4219V26.4844C73.0807 26.5625 73.5911 26.7734 73.9453 27.1172C74.2995 27.4609 74.4766 27.9062 74.4766 28.4531C74.4766 29.2708 74.1641 29.901 73.5391 30.3438C72.9193 30.7812 72.0156 31 70.8281 31H66.7031V22.3594H70.8125C73.0729 22.3594 74.2031 23.0964 74.2031 24.5703ZM72.5938 28.3438C72.5938 27.9271 72.4323 27.6328 72.1094 27.4609C71.7865 27.2839 71.3021 27.1953 70.6562 27.1953H68.5391V29.6406H70.7031C71.9635 29.6406 72.5938 29.2083 72.5938 28.3438ZM72.3672 24.7266C72.3672 24.3828 72.2318 24.1354 71.9609 23.9844C71.6953 23.8281 71.2969 23.75 70.7656 23.75H68.5391V25.8281H70.4922C71.1068 25.8281 71.5729 25.75 71.8906 25.5938C72.2083 25.4323 72.3672 25.1432 72.3672 24.7266ZM78.1328 22.3594V26.7891C78.1328 27.3047 78.0911 28.0625 78.0078 29.0625L82.3438 22.3594H84.5859V31H82.8203V26.6484C82.8203 26.4089 82.8333 26.0208 82.8594 25.4844C82.8906 24.9479 82.9167 24.5573 82.9375 24.3125L78.6172 31H76.375V22.3594H78.1328ZM93.6953 22.3594V23.7969H90.8828V31H89.0391V23.7969H86.2266V22.3594H93.6953ZM97.1953 25.8125H99.3594C101.771 25.8125 102.977 26.6458 102.977 28.3125C102.977 29.1927 102.669 29.862 102.055 30.3203C101.44 30.7734 100.542 31 99.3594 31H95.3594V22.3594H97.1953V25.8125ZM101.133 28.3594C101.133 27.9271 100.969 27.625 100.641 27.4531C100.312 27.2812 99.849 27.1953 99.25 27.1953H97.1953V29.6406H99.2812C99.8854 29.6406 100.344 29.5312 100.656 29.3125C100.974 29.0938 101.133 28.776 101.133 28.3594ZM112.656 31.1562C111.349 31.1562 110.354 30.776 109.672 30.0156C108.995 29.25 108.656 28.1536 108.656 26.7266C108.656 25.2734 109.01 24.1562 109.719 23.375C110.432 22.5938 111.461 22.2031 112.805 22.2031C113.716 22.2031 114.536 22.3724 115.266 22.7109L114.711 24.1875C113.935 23.8854 113.294 23.7344 112.789 23.7344C111.294 23.7344 110.547 24.7266 110.547 26.7109C110.547 27.6797 110.732 28.4089 111.102 28.8984C111.477 29.3828 112.023 29.625 112.742 29.625C113.56 29.625 114.333 29.4219 115.062 29.0156V30.6172C114.734 30.8099 114.383 30.9479 114.008 31.0312C113.638 31.1146 113.188 31.1562 112.656 31.1562ZM123.586 22.3594V23.7969H120.773V31H118.93V23.7969H116.117V22.3594H123.586ZM132.914 26.6641C132.914 28.0755 132.552 29.1771 131.828 29.9688C131.104 30.7604 130.096 31.1562 128.805 31.1562C127.997 31.1562 127.284 30.974 126.664 30.6094C126.044 30.2448 125.568 29.7214 125.234 29.0391C124.901 28.3568 124.734 27.5651 124.734 26.6641C124.734 25.263 125.094 24.1693 125.812 23.3828C126.531 22.5964 127.544 22.2031 128.852 22.2031C130.102 22.2031 131.091 22.6068 131.82 23.4141C132.549 24.2161 132.914 25.2995 132.914 26.6641ZM126.625 26.6641C126.625 28.6589 127.362 29.6562 128.836 29.6562C130.294 29.6562 131.023 28.6589 131.023 26.6641C131.023 24.6901 130.289 23.7031 128.82 23.7031C128.049 23.7031 127.49 23.9583 127.141 24.4688C126.797 24.9792 126.625 25.7109 126.625 26.6641ZM142.133 31H140.281V23.7969H137.898C137.753 25.651 137.555 27.099 137.305 28.1406C137.06 29.1823 136.737 29.9427 136.336 30.4219C135.94 30.901 135.424 31.1406 134.789 31.1406C134.388 31.1406 134.052 31.0833 133.781 30.9688V29.5312C133.974 29.6042 134.167 29.6406 134.359 29.6406C134.891 29.6406 135.307 29.0443 135.609 27.8516C135.917 26.6536 136.156 24.8229 136.328 22.3594H142.133V31ZM144.266 25.8125C144.266 23.8854 144.591 22.4036 145.242 21.3672C145.898 20.3307 146.94 19.6641 148.367 19.3672C149.445 19.1484 150.688 18.9349 152.094 18.7266L152.352 20.3438C150.643 20.6042 149.393 20.8073 148.602 20.9531C147.784 21.1042 147.193 21.4401 146.828 21.9609C146.469 22.4818 146.26 23.2656 146.203 24.3125H146.32C146.617 23.8802 147.005 23.5469 147.484 23.3125C147.964 23.0729 148.477 22.9531 149.023 22.9531C150.086 22.9531 150.914 23.2891 151.508 23.9609C152.102 24.6328 152.398 25.5755 152.398 26.7891C152.398 28.1797 152.036 29.2552 151.312 30.0156C150.594 30.776 149.596 31.1562 148.32 31.1562C147.055 31.1562 146.062 30.6875 145.344 29.75C144.625 28.8125 144.266 27.5 144.266 25.8125ZM148.445 29.6562C149.81 29.6562 150.492 28.7604 150.492 26.9688C150.492 25.2396 149.875 24.375 148.641 24.375C148.302 24.375 147.974 24.4479 147.656 24.5938C147.339 24.7396 147.044 24.9323 146.773 25.1719C146.508 25.4115 146.302 25.6589 146.156 25.9141C146.156 27.1432 146.352 28.0755 146.742 28.7109C147.133 29.3411 147.701 29.6562 148.445 29.6562ZM158.289 31.1562C156.945 31.1562 155.893 30.7656 155.133 29.9844C154.378 29.1979 154 28.1172 154 26.7422C154 25.3307 154.352 24.2214 155.055 23.4141C155.758 22.6068 156.724 22.2031 157.953 22.2031C159.094 22.2031 159.995 22.5495 160.656 23.2422C161.318 23.9349 161.648 24.888 161.648 26.1016V27.0938H155.891C155.917 27.9323 156.143 28.5781 156.57 29.0312C156.997 29.4792 157.599 29.7031 158.375 29.7031C158.885 29.7031 159.359 29.6562 159.797 29.5625C160.24 29.4635 160.714 29.3021 161.219 29.0781V30.5703C160.771 30.7839 160.318 30.9349 159.859 31.0234C159.401 31.112 158.878 31.1562 158.289 31.1562ZM157.953 23.5938C157.37 23.5938 156.901 23.7786 156.547 24.1484C156.198 24.5182 155.99 25.0573 155.922 25.7656H159.844C159.833 25.0521 159.661 24.513 159.328 24.1484C158.995 23.7786 158.536 23.5938 157.953 23.5938ZM171.43 29.5781H172.68V34.0391H170.953V31H163.734V22.3594H165.57V29.5469H169.594V22.3594H171.43V29.5781Z" fill="#333333"/>
<path d="M7.5 25.5H3.75M7.5 21.75V25.5V21.75ZM7.5 25.5V29.25V25.5ZM7.5 25.5H11.25H7.5Z" stroke="#333333" stroke-linecap="round" stroke-linejoin="round"/>
</g>
</svg>
