<svg width="153" height="20" viewBox="0 0 153 20" fill="none" xmlns="http://www.w3.org/2000/svg">
<path d="M22.9336 17.2324H21.9844V15H16.0312V17.2324H15.082V14.0977H15.7441C16.3457 13.0859 16.8594 11.8555 17.2852 10.4062C17.7148 8.95703 17.9531 7.63281 18 6.43359H21.8496V14.0977H22.9336V17.2324ZM20.8535 14.0977V7.33008H18.9023C18.832 8.27539 18.5957 9.41211 18.1934 10.7402C17.791 12.0645 17.3223 13.1836 16.7871 14.0977H20.8535ZM29.7773 11.7832C29.7773 12.8301 29.5137 13.6484 28.9863 14.2383C28.459 14.8242 27.7305 15.1172 26.8008 15.1172C26.2266 15.1172 25.7168 14.9824 25.2715 14.7129C24.8262 14.4434 24.4824 14.0566 24.2402 13.5527C23.998 13.0488 23.877 12.459 23.877 11.7832C23.877 10.7363 24.1387 9.92188 24.6621 9.33984C25.1855 8.75391 25.9121 8.46094 26.8418 8.46094C27.7402 8.46094 28.4531 8.75977 28.9805 9.35742C29.5117 9.95508 29.7773 10.7637 29.7773 11.7832ZM24.8848 11.7832C24.8848 12.6035 25.0488 13.2285 25.377 13.6582C25.7051 14.0879 26.1875 14.3027 26.8242 14.3027C27.4609 14.3027 27.9434 14.0898 28.2715 13.6641C28.6035 13.2344 28.7695 12.6074 28.7695 11.7832C28.7695 10.9668 28.6035 10.3477 28.2715 9.92578C27.9434 9.5 27.457 9.28711 26.8125 9.28711C26.1758 9.28711 25.6953 9.49609 25.3711 9.91406C25.0469 10.332 24.8848 10.9551 24.8848 11.7832ZM31.1543 11.1504C31.1543 9.74414 31.3613 8.64844 31.7754 7.86328C32.1895 7.07422 32.8457 6.58203 33.7441 6.38672C34.8613 6.14844 35.8457 5.95508 36.6973 5.80664L36.8789 6.66211C35.5234 6.88867 34.5547 7.06836 33.9727 7.20117C33.4062 7.33008 32.9805 7.63477 32.6953 8.11523C32.4141 8.5957 32.2598 9.25 32.2324 10.0781H32.3027C32.5449 9.75 32.8574 9.49219 33.2402 9.30469C33.623 9.11719 34.0234 9.02344 34.4414 9.02344C35.2305 9.02344 35.8457 9.2793 36.2871 9.79102C36.7285 10.3027 36.9492 11.0117 36.9492 11.918C36.9492 12.9219 36.6934 13.707 36.1816 14.2734C35.6699 14.8359 34.957 15.1172 34.043 15.1172C33.1406 15.1172 32.4336 14.7715 31.9219 14.0801C31.4102 13.3887 31.1543 12.4121 31.1543 11.1504ZM34.1309 14.3027C35.3223 14.3027 35.918 13.543 35.918 12.0234C35.918 10.5742 35.377 9.84961 34.2949 9.84961C33.998 9.84961 33.7109 9.91211 33.4336 10.0371C33.1602 10.1582 32.9082 10.3203 32.6777 10.5234C32.4512 10.7266 32.2754 10.9355 32.1504 11.1504C32.1504 12.1777 32.3125 12.9609 32.6367 13.5C32.9609 14.0352 33.459 14.3027 34.1309 14.3027ZM42.5977 15L42.4043 14.0859H42.3574C42.0371 14.4883 41.7168 14.7617 41.3965 14.9062C41.0801 15.0469 40.6836 15.1172 40.207 15.1172C39.5703 15.1172 39.0703 14.9531 38.707 14.625C38.3477 14.2969 38.168 13.8301 38.168 13.2246C38.168 11.9277 39.2051 11.248 41.2793 11.1855L42.3691 11.1504V10.752C42.3691 10.248 42.2598 9.87695 42.041 9.63867C41.8262 9.39648 41.4805 9.27539 41.0039 9.27539C40.4688 9.27539 39.8633 9.43945 39.1875 9.76758L38.8887 9.02344C39.2051 8.85156 39.5508 8.7168 39.9258 8.61914C40.3047 8.52148 40.6836 8.47266 41.0625 8.47266C41.8281 8.47266 42.3945 8.64258 42.7617 8.98242C43.1328 9.32227 43.3184 9.86719 43.3184 10.6172V15H42.5977ZM40.4004 14.3145C41.0059 14.3145 41.4805 14.1484 41.8242 13.8164C42.1719 13.4844 42.3457 13.0195 42.3457 12.4219V11.8418L41.373 11.8828C40.5996 11.9102 40.041 12.0312 39.6973 12.2461C39.3574 12.457 39.1875 12.7871 39.1875 13.2363C39.1875 13.5879 39.293 13.8555 39.5039 14.0391C39.7188 14.2227 40.0176 14.3145 40.4004 14.3145ZM50.5371 10.1895C50.5371 10.6074 50.416 10.9258 50.1738 11.1445C49.9355 11.3594 49.5996 11.5039 49.166 11.5781V11.6309C49.7129 11.7051 50.1113 11.8652 50.3613 12.1113C50.6152 12.3574 50.7422 12.6973 50.7422 13.1309C50.7422 13.7285 50.5215 14.1895 50.0801 14.5137C49.6426 14.8379 49.002 15 48.1582 15H45.3281V8.57812H48.1465C49.7402 8.57812 50.5371 9.11523 50.5371 10.1895ZM49.7695 13.0664C49.7695 12.7188 49.6367 12.4668 49.3711 12.3105C49.1094 12.1504 48.6738 12.0703 48.0645 12.0703H46.3008V14.1855H48.0879C49.209 14.1855 49.7695 13.8125 49.7695 13.0664ZM49.5879 10.2832C49.5879 9.9707 49.4668 9.75 49.2246 9.62109C48.9863 9.48828 48.623 9.42188 48.1348 9.42188H46.3008V11.2324H47.9473C48.5488 11.2324 48.9727 11.1582 49.2188 11.0098C49.4648 10.8613 49.5879 10.6191 49.5879 10.2832ZM53.0742 8.57812V12.6504L53.0332 13.7168L53.0156 14.0508L56.4902 8.57812H57.7031V15H56.7949V11.0742L56.8125 10.3008L56.8418 9.53906L53.373 15H52.1602V8.57812H53.0742ZM64.0957 9.41016H62.0098V15H61.0371V9.41016H58.9746V8.57812H64.0957V9.41016ZM66.3398 11.2324H68.3203C69.9609 11.2324 70.7812 11.8359 70.7812 13.043C70.7812 13.6758 70.5664 14.1602 70.1367 14.4961C69.7109 14.832 69.0859 15 68.2617 15H65.3672V8.57812H66.3398V11.2324ZM66.3398 12.0703V14.1855H68.2148C68.7305 14.1855 69.125 14.0957 69.3984 13.916C69.6719 13.7363 69.8086 13.4648 69.8086 13.1016C69.8086 12.7461 69.6816 12.4863 69.4277 12.3223C69.1777 12.1543 68.7637 12.0703 68.1855 12.0703H66.3398ZM76.5586 15H75.5859V8.57812H80.9766V15H79.9922V9.42188H76.5586V15ZM88.582 11.7832C88.582 12.8301 88.3184 13.6484 87.791 14.2383C87.2637 14.8242 86.5352 15.1172 85.6055 15.1172C85.0312 15.1172 84.5215 14.9824 84.0762 14.7129C83.6309 14.4434 83.2871 14.0566 83.0449 13.5527C82.8027 13.0488 82.6816 12.459 82.6816 11.7832C82.6816 10.7363 82.9434 9.92188 83.4668 9.33984C83.9902 8.75391 84.7168 8.46094 85.6465 8.46094C86.5449 8.46094 87.2578 8.75977 87.7852 9.35742C88.3164 9.95508 88.582 10.7637 88.582 11.7832ZM83.6895 11.7832C83.6895 12.6035 83.8535 13.2285 84.1816 13.6582C84.5098 14.0879 84.9922 14.3027 85.6289 14.3027C86.2656 14.3027 86.748 14.0898 87.0762 13.6641C87.4082 13.2344 87.5742 12.6074 87.5742 11.7832C87.5742 10.9668 87.4082 10.3477 87.0762 9.92578C86.748 9.5 86.2617 9.28711 85.6172 9.28711C84.9805 9.28711 84.5 9.49609 84.1758 9.91406C83.8516 10.332 83.6895 10.9551 83.6895 11.7832ZM95.8711 17.2207H94.9277V15H90.4395V17.2207H89.502V14.1621H90.0059C90.5293 13.4512 90.9395 12.6172 91.2363 11.6602C91.5332 10.7031 91.6875 9.67578 91.6992 8.57812H94.9512V14.1621H95.8711V17.2207ZM94.0137 14.1621V9.3457H92.5723C92.5215 10.2129 92.3535 11.0918 92.0684 11.9824C91.7871 12.8691 91.4355 13.5957 91.0137 14.1621H94.0137ZM98.3848 11.2441C99.5996 11.2441 100.207 10.9082 100.207 10.2363C100.207 9.60352 99.7148 9.28711 98.7305 9.28711C98.4297 9.28711 98.1562 9.31445 97.9102 9.36914C97.6641 9.42383 97.3418 9.5332 96.9434 9.69727L96.5977 8.90625C97.2617 8.60938 97.9863 8.46094 98.7715 8.46094C99.5098 8.46094 100.092 8.61328 100.518 8.91797C100.943 9.21875 101.156 9.63086 101.156 10.1543C101.156 10.873 100.756 11.3438 99.9551 11.5664V11.6133C100.447 11.7578 100.807 11.9648 101.033 12.2344C101.26 12.5 101.373 12.834 101.373 13.2363C101.373 13.8301 101.133 14.293 100.652 14.625C100.176 14.9531 99.5156 15.1172 98.6719 15.1172C97.7461 15.1172 97.0312 14.9785 96.5273 14.7012V13.8105C97.2422 14.1465 97.9648 14.3145 98.6953 14.3145C99.2578 14.3145 99.6816 14.2188 99.9668 14.0273C100.256 13.832 100.4 13.5527 100.4 13.1895C100.4 12.4434 99.793 12.0703 98.5781 12.0703H97.6875V11.2441H98.3848ZM106.91 15L106.717 14.0859H106.67C106.35 14.4883 106.029 14.7617 105.709 14.9062C105.393 15.0469 104.996 15.1172 104.52 15.1172C103.883 15.1172 103.383 14.9531 103.02 14.625C102.66 14.2969 102.48 13.8301 102.48 13.2246C102.48 11.9277 103.518 11.248 105.592 11.1855L106.682 11.1504V10.752C106.682 10.248 106.572 9.87695 106.354 9.63867C106.139 9.39648 105.793 9.27539 105.316 9.27539C104.781 9.27539 104.176 9.43945 103.5 9.76758L103.201 9.02344C103.518 8.85156 103.863 8.7168 104.238 8.61914C104.617 8.52148 104.996 8.47266 105.375 8.47266C106.141 8.47266 106.707 8.64258 107.074 8.98242C107.445 9.32227 107.631 9.86719 107.631 10.6172V15H106.91ZM104.713 14.3145C105.318 14.3145 105.793 14.1484 106.137 13.8164C106.484 13.4844 106.658 13.0195 106.658 12.4219V11.8418L105.686 11.8828C104.912 11.9102 104.354 12.0312 104.01 12.2461C103.67 12.457 103.5 12.7871 103.5 13.2363C103.5 13.5879 103.605 13.8555 103.816 14.0391C104.031 14.2227 104.33 14.3145 104.713 14.3145ZM115.219 17.2207H114.275V15H109.787V17.2207H108.85V14.1621H109.354C109.877 13.4512 110.287 12.6172 110.584 11.6602C110.881 10.7031 111.035 9.67578 111.047 8.57812H114.299V14.1621H115.219V17.2207ZM113.361 14.1621V9.3457H111.92C111.869 10.2129 111.701 11.0918 111.416 11.9824C111.135 12.8691 110.783 13.5957 110.361 14.1621H113.361ZM120.457 15L120.264 14.0859H120.217C119.896 14.4883 119.576 14.7617 119.256 14.9062C118.939 15.0469 118.543 15.1172 118.066 15.1172C117.43 15.1172 116.93 14.9531 116.566 14.625C116.207 14.2969 116.027 13.8301 116.027 13.2246C116.027 11.9277 117.064 11.248 119.139 11.1855L120.229 11.1504V10.752C120.229 10.248 120.119 9.87695 119.9 9.63867C119.686 9.39648 119.34 9.27539 118.863 9.27539C118.328 9.27539 117.723 9.43945 117.047 9.76758L116.748 9.02344C117.064 8.85156 117.41 8.7168 117.785 8.61914C118.164 8.52148 118.543 8.47266 118.922 8.47266C119.688 8.47266 120.254 8.64258 120.621 8.98242C120.992 9.32227 121.178 9.86719 121.178 10.6172V15H120.457ZM118.26 14.3145C118.865 14.3145 119.34 14.1484 119.684 13.8164C120.031 13.4844 120.205 13.0195 120.205 12.4219V11.8418L119.232 11.8828C118.459 11.9102 117.9 12.0312 117.557 12.2461C117.217 12.457 117.047 12.7871 117.047 13.2363C117.047 13.5879 117.152 13.8555 117.363 14.0391C117.578 14.2227 117.877 14.3145 118.26 14.3145ZM124.043 8.57812V10.9219C124.043 11.6719 124.471 12.0469 125.326 12.0469C125.682 12.0469 126.021 11.9922 126.346 11.8828C126.67 11.7734 127.037 11.5879 127.447 11.3262V8.57812H128.42V15H127.447V12.0938C127.037 12.375 126.656 12.5742 126.305 12.6914C125.957 12.8047 125.562 12.8613 125.121 12.8613C124.48 12.8613 123.979 12.6934 123.615 12.3574C123.252 12.0215 123.07 11.5664 123.07 10.9922V8.57812H124.043ZM129.469 8.57812H130.512L131.918 12.2402C132.227 13.0762 132.418 13.6797 132.492 14.0508H132.539C132.59 13.8516 132.695 13.5117 132.855 13.0312C133.02 12.5469 133.551 11.0625 134.449 8.57812H135.492L132.732 15.8906C132.459 16.6133 132.139 17.125 131.771 17.4258C131.408 17.7305 130.961 17.8828 130.43 17.8828C130.133 17.8828 129.84 17.8496 129.551 17.7832V17.0039C129.766 17.0508 130.006 17.0742 130.271 17.0742C130.939 17.0742 131.416 16.6992 131.701 15.9492L132.059 15.0352L129.469 8.57812Z" fill="#808080"/>
<path d="M4.5 10.5H1M4.5 7V10.5V7ZM4.5 10.5V14V10.5ZM4.5 10.5H8H4.5Z" stroke="#808080" stroke-linecap="round" stroke-linejoin="round"/>
</svg>
