<svg width="41" height="18" viewBox="0 0 41 18" fill="none" xmlns="http://www.w3.org/2000/svg">
<rect width="41" height="18" rx="9" fill="#F2F5FA"/>
<path d="M29.8333 10.5C28.8042 10.5 27.9917 11.15 27.7208 12H22.7917C21.275 12 20.0833 10.9 20.0833 9.5V8H27.7208C27.9375 8.85 28.8042 9.5 29.8333 9.5C31.025 9.5 32 8.6 32 7.5C32 6.4 31.025 5.5 29.8333 5.5C28.8042 5.5 27.9917 6.15 27.7208 7H20.0833V4.5C20.0833 4.2 19.8667 4 19.5417 4C19.2167 4 19 4.2 19 4.5V9.5C19 11.45 20.6792 13 22.7917 13H27.7208C27.9375 13.85 28.8042 14.5 29.8333 14.5C31.025 14.5 32 13.6 32 12.5C32 11.4 31.025 10.5 29.8333 10.5ZM29.8333 6.5C30.4292 6.5 30.9167 6.95 30.9167 7.5C30.9167 8.05 30.4292 8.5 29.8333 8.5C29.2375 8.5 28.75 8.05 28.75 7.5C28.75 6.95 29.2375 6.5 29.8333 6.5ZM29.8333 13.5C29.2375 13.5 28.75 13.05 28.75 12.5C28.75 11.95 29.2375 11.5 29.8333 11.5C30.4292 11.5 30.9167 11.95 30.9167 12.5C30.9167 13.05 30.4292 13.5 29.8333 13.5Z" fill="#B7B9BB"/>
<path d="M14.2832 13H8.65234V12.1621L10.9082 9.89453C11.5957 9.19922 12.0488 8.70312 12.2676 8.40625C12.4863 8.10938 12.6504 7.82031 12.7598 7.53906C12.8691 7.25781 12.9238 6.95508 12.9238 6.63086C12.9238 6.17383 12.7852 5.8125 12.5078 5.54688C12.2305 5.27734 11.8457 5.14258 11.3535 5.14258C10.998 5.14258 10.6602 5.20117 10.3398 5.31836C10.0234 5.43555 9.66992 5.64844 9.2793 5.95703L8.76367 5.29492C9.55273 4.63867 10.4121 4.31055 11.3418 4.31055C12.1465 4.31055 12.7773 4.51758 13.2344 4.93164C13.6914 5.3418 13.9199 5.89453 13.9199 6.58984C13.9199 7.13281 13.7676 7.66992 13.4629 8.20117C13.1582 8.73242 12.5879 9.4043 11.752 10.2168L9.87695 12.0508V12.0977H14.2832V13Z" fill="#B7B9BB"/>
</svg>
