<svg width="9" height="3" viewBox="0 0 9 3" fill="none" xmlns="http://www.w3.org/2000/svg">
<path d="M1.29168 1.50002H1.29626H1.29168ZM4.50001 1.50002H4.50459H4.50001ZM7.70834 1.50002H7.71293H7.70834ZM1.75001 1.50002C1.75001 1.62158 1.70172 1.73816 1.61577 1.82411C1.52981 1.91006 1.41323 1.95835 1.29168 1.95835C1.17012 1.95835 1.05354 1.91006 0.967586 1.82411C0.881632 1.73816 0.833344 1.62158 0.833344 1.50002C0.833344 1.37846 0.881632 1.26188 0.967586 1.17593C1.05354 1.08998 1.17012 1.04169 1.29168 1.04169C1.41323 1.04169 1.52981 1.08998 1.61577 1.17593C1.70172 1.26188 1.75001 1.37846 1.75001 1.50002V1.50002ZM4.95834 1.50002C4.95834 1.62158 4.91005 1.73816 4.8241 1.82411C4.73815 1.91006 4.62157 1.95835 4.50001 1.95835C4.37845 1.95835 4.26187 1.91006 4.17592 1.82411C4.08997 1.73816 4.04168 1.62158 4.04168 1.50002C4.04168 1.37846 4.08997 1.26188 4.17592 1.17593C4.26187 1.08998 4.37845 1.04169 4.50001 1.04169C4.62157 1.04169 4.73815 1.08998 4.8241 1.17593C4.91005 1.26188 4.95834 1.37846 4.95834 1.50002V1.50002ZM8.16668 1.50002C8.16668 1.62158 8.11839 1.73816 8.03243 1.82411C7.94648 1.91006 7.8299 1.95835 7.70834 1.95835C7.58679 1.95835 7.47021 1.91006 7.38425 1.82411C7.2983 1.73816 7.25001 1.62158 7.25001 1.50002C7.25001 1.37846 7.2983 1.26188 7.38425 1.17593C7.47021 1.08998 7.58679 1.04169 7.70834 1.04169C7.8299 1.04169 7.94648 1.08998 8.03243 1.17593C8.11839 1.26188 8.16668 1.37846 8.16668 1.50002V1.50002Z" stroke="#333333" stroke-linecap="round" stroke-linejoin="round"/>
</svg>
